<?xml version="1.0" encoding="utf-8"?>
<!-- Generator: Adobe Illustrator 25.1.0, SVG Export Plug-In . SVG Version: 6.00 Build 0)  -->
<svg version="1.1" id="Layer_1" xmlns="http://www.w3.org/2000/svg" xmlns:xlink="http://www.w3.org/1999/xlink" x="0px" y="0px"
	 viewBox="0 0 250 250" style="enable-background:new 0 0 250 250;" xml:space="preserve">
<style type="text/css">
	.st0{fill:#B8CE43;}
</style>
<path class="st0" d="M124.84,4L20.01,64.51v121.05l104.84,60.52l104.83-60.52V64.51L124.84,4z M195.67,90.06h-14.33v99.35h-20.76
	l-26.32-75.05h-0.29v43.91c0,21.47-12.46,33.23-32.87,33.23s-32.87-11.77-32.87-33.23V90.25H54.11V80.07h-0.09V69.28h14.22v-0.04
	h21.44v89.9c0,9.17,3.64,13.68,11.43,13.68c7.78,0,11.43-4.51,11.43-13.68v-89.9h2.74h18.7h0.46l25.13,68.73h0.34V69.24h18.52v-0.05
	h17.24V90.06z"/>
</svg>
