<svg width="140px" height="100%" viewBox="0 0 634 78" version="1.1" xmlns="http://www.w3.org/2000/svg" xmlns:xlink="http://www.w3.org/1999/xlink">
    <defs>
        <polygon id="path-isvvyt08y7-1" points="0 0 23.0058 0 23.0058 56.489 0 56.489"></polygon>
        <polygon id="path-isvvyt08y7-3" points="0 0 95.713 0 95.713 77.3846 0 77.3846"></polygon>
    </defs>
    <g id="Page-1" stroke="none" stroke-width="1" fill="none" fill-rule="evenodd">
        <g id="Group-23" transform="translate(0.000000, -0.000000)">
            <polygon id="Fill-1" fill="#B9E2E9" points="510.3639 2.8897 517.7289 33.1837 517.7289 2.8897 525.5499 2.8897 525.5499 59.3787 518.5639 59.3787 510.3639 26.8827 510.3639 59.3787 502.6189 59.3787 502.6189 2.8897"></polygon>
            <g id="Group-22">
                <path d="M544.7594,14.8863 C544.7594,11.9253 543.7724,10.5583 541.7984,10.5583 C539.5964,10.5583 538.7614,12.0003 538.7614,14.8863 L538.7614,47.3823 C538.7614,49.8113 539.4454,51.7093 541.8734,51.7093 C544.1524,51.7093 544.7594,49.8113 544.7594,47.3823 L544.7594,14.8863 Z M553.4904,46.7743 C553.4904,54.6703 550.8334,60.0623 542.5574,60.0623 L541.1144,60.0623 C532.9144,60.0623 530.0304,54.6703 530.0304,46.7743 L530.0304,15.3413 C530.0304,7.5213 532.9914,2.3583 541.0394,2.3583 L542.4824,2.3583 C550.8334,2.3583 553.4904,7.5213 553.4904,15.2653 L553.4904,46.7743 Z" id="Fill-2" fill="#B9E2E9"></path>
                <path d="M566.5514,26.1231 L568.8284,26.1231 C571.1844,26.1231 571.9434,24.6041 571.9434,22.0991 L571.9434,14.2031 C571.9434,11.7731 571.4104,10.5581 568.8284,10.5581 L566.5514,10.5581 L566.5514,26.1231 Z M566.5514,59.3781 L557.9714,59.3781 L557.9714,2.8901 L571.8654,2.8901 C577.5614,2.8901 580.4464,5.3191 580.4464,11.6211 L580.4464,21.6431 C580.4464,26.3511 578.2434,28.1731 576.7254,28.8561 C578.6244,29.6911 580.4464,31.2101 580.4464,35.0071 L580.4464,54.8231 C580.4464,57.1011 580.9024,58.1641 581.2814,58.9991 L581.2814,59.3781 L572.7784,59.3781 C572.3984,58.7701 571.9434,57.7851 571.9434,54.7481 L571.9434,37.7391 C571.9434,35.2331 571.4864,34.1721 568.7534,34.1721 L566.5514,34.1721 L566.5514,59.3781 Z" id="Fill-4" fill="#B9E2E9"></path>
                <polygon id="Fill-6" fill="#B9E2E9" points="590.6979 11.0899 583.4839 11.0899 583.4839 2.8899 606.4149 2.8899 606.4149 11.0899 599.2009 11.0899 599.2009 59.3789 590.6979 59.3789"></polygon>
                <g id="Group-10" transform="translate(610.059200, 2.889700)">
                    <mask id="mask-isvvyt08y7-2" fill="white">
                        <use xlink:href="#path-isvvyt08y7-1"></use>
                    </mask>
                    <g id="Clip-9"></g>
                    <polygon id="Fill-8" fill="#B9E2E9" mask="url(#mask-isvvyt08y7-2)" points="0 0 8.58 0 8.58 22.626 14.427 22.626 14.427 0 23.006 0 23.006 56.489 14.427 56.489 14.427 31.662 8.58 31.662 8.58 56.489 0 56.489"></polygon>
                </g>
                <path d="M457.2711,35.23 L424.6811,35.23 L424.6811,22.401 L457.2711,22.401 C462.9721,22.401 467.2501,22.401 467.2501,28.815 C467.2501,35.23 462.9721,35.23 457.2711,35.23 M493.7221,28.815 C493.7221,11.404 483.6421,2.036 465.4171,2.036 L399.2251,2.036 L399.2251,75.349 L424.6811,75.349 L424.6811,55.595 L452.4851,55.595 L464.6021,75.349 L493.7221,75.349 L478.5511,53.151 C488.4271,49.078 493.7221,40.016 493.7221,28.815" id="Fill-11" fill="#B9E2E9"></path>
                <polygon id="Fill-13" fill="#B9E2E9" points="295.9596 2.0366 295.9586 2.0366 295.9586 2.0366 273.6746 2.0366 273.6746 2.0366 270.5126 2.0366 270.5126 46.1026 238.8506 2.0366 201.1766 2.0366 201.1766 75.3486 226.6326 75.3486 226.6326 26.8806 261.4556 75.3486 295.9586 75.3486 295.9586 65.0756 295.9596 65.0756"></polygon>
                <path d="M51.485,53.9659 L25.455,53.9659 L25.455,23.4189 L51.485,23.4189 C59.223,23.4189 68.59,23.4189 68.59,38.6919 C68.59,53.9659 59.223,53.9659 51.485,53.9659 M61.667,2.0359 L0,2.0359 L0,75.3479 L61.667,75.3479 C78.875,75.3479 95.065,63.9449 95.065,38.6919 C95.065,13.4399 78.875,2.0359 61.667,2.0359" id="Fill-15" fill="#B9E2E9"></path>
                <g id="Group-19" transform="translate(100.263700, 0.000000)">
                    <mask id="mask-isvvyt08y7-4" fill="white">
                        <use xlink:href="#path-isvvyt08y7-3"></use>
                    </mask>
                    <g id="Clip-18"></g>
                    <path d="M47.857,56.002 C31.259,56.002 26.474,48.264 26.474,38.59 C26.474,29.019 31.158,21.382 47.857,21.382 C64.556,21.382 69.239,29.121 69.239,38.59 C69.239,48.161 64.454,56.002 47.857,56.002 M47.857,0 C17.514,0 0,13.848 0,38.59 C0,63.435 17.514,77.385 47.857,77.385 C78.098,77.385 95.713,63.333 95.713,38.59 C95.713,13.949 78.098,0 47.857,0" id="Fill-17" fill="#B9E2E9" mask="url(#mask-isvvyt08y7-4)"></path>
                </g>
                <polygon id="Fill-20" fill="#B9E2E9" points="304.5602 75.3482 390.6682 75.3482 390.6682 56.0022 332.1932 56.0022 332.1932 48.3652 390.6682 48.3652 390.6682 29.0182 332.1932 29.0182 332.1932 21.3832 390.6682 21.3832 390.6682 2.0362 304.5602 2.0362"></polygon>
            </g>
        </g>
    </g>
</svg>

