<svg xmlns="http://www.w3.org/2000/svg" viewBox="0 0 223.49 223.49"><defs><style>.cls-1{fill:#fff;}</style></defs><g id="Layer_2" data-name="Layer 2"><g id="_300x300_px" data-name="300x300 px"><circle class="cls-1" cx="111.75" cy="111.75" r="109.5"/><path d="M111.75,4.49a107.26,107.26,0,0,1,75.84,183.1A107.25,107.25,0,1,1,35.91,35.91,106.53,106.53,0,0,1,111.75,4.49m0-4.49A111.75,111.75,0,1,0,223.49,111.75,111.75,111.75,0,0,0,111.75,0Z"/><path d="M39.05,91.07a11.49,11.49,0,0,1,3.67-8.71,11.89,11.89,0,0,1,8.86-3.54,12,12,0,0,1,8.9,3.54,12.07,12.07,0,0,1,0,17.41,12,12,0,0,1-8.9,3.54,11.86,11.86,0,0,1-8.86-3.54A11.48,11.48,0,0,1,39.05,91.07Zm20.16,0A7.59,7.59,0,0,0,57,85.5a7.84,7.84,0,0,0-10.87,0,8.33,8.33,0,0,0,0,11.17,7.84,7.84,0,0,0,10.87,0A7.57,7.57,0,0,0,59.21,91.07Z"/><path d="M66.33,95.08V85.16h4.84V95.47a3.27,3.27,0,0,0,1,2.47,3.3,3.3,0,0,0,2.41.93,3.15,3.15,0,0,0,2.37-1,3.35,3.35,0,0,0,.93-2.45V85.16h4.83v9.92A8,8,0,0,1,80.35,101a7.91,7.91,0,0,1-5.82,2.29,7.85,7.85,0,0,1-8.2-8.23Z"/><path d="M96.74,85.16v4.26H95.45A4.9,4.9,0,0,0,92,90.6,4.46,4.46,0,0,0,90.68,94v8.84H85.85V85.16h4.44v2.11a6,6,0,0,1,4.87-2.33A5.07,5.07,0,0,1,96.74,85.16Z"/><path d="M40.41,134.78V111.15h15.9v4.37H45.24v4.79h8.13v4.12H45.24v6h11.5v4.37Z"/><path d="M76.22,134.78H70.81L67,129.12l-3.83,5.66h-5.4l6.48-9.13-6.06-8.59h5.41l3.4,5.12,3.37-5.12h5.41l-6.09,8.55Z"/><path d="M94.46,119.29a10.15,10.15,0,0,1,0,13.25,8,8,0,0,1-6.14,2.67,6.81,6.81,0,0,1-5.3-2.15v8.17H78.19V117.06h4.44v2.22a6.45,6.45,0,0,1,5.69-2.62A8,8,0,0,1,94.46,119.29ZM92,125.94a5,5,0,0,0-1.29-3.55,4.65,4.65,0,0,0-6.5-.07A4.86,4.86,0,0,0,83,125.9a4.93,4.93,0,0,0,1.27,3.6,4.3,4.3,0,0,0,3.21,1.31,4.37,4.37,0,0,0,3.27-1.36A4.87,4.87,0,0,0,92,125.94Z"/><path d="M115.57,127.55H103.15a4.29,4.29,0,0,0,1.73,2.59,5.55,5.55,0,0,0,3.24.92,8,8,0,0,0,4.95-1.79l2,3.29a10.8,10.8,0,0,1-7.09,2.65,9.36,9.36,0,0,1-6.93-2.67,8.57,8.57,0,0,1-2.77-6.6,9.17,9.17,0,0,1,9.27-9.28,8.07,8.07,0,0,1,8.35,8.24A11.24,11.24,0,0,1,115.57,127.55Zm-12.42-3.4h8a3.45,3.45,0,0,0-1.12-2.6,3.88,3.88,0,0,0-2.71-1,4,4,0,0,0-2.68,1A4.73,4.73,0,0,0,103.15,124.15Z"/><path d="M129.11,117.06v4.26h-1.29a4.92,4.92,0,0,0-3.49,1.18,4.45,4.45,0,0,0-1.27,3.44v8.84h-4.84V117.06h4.44v2.11a6,6,0,0,1,4.87-2.33A5,5,0,0,1,129.11,117.06Z"/><path d="M144.22,130.74v4a13.53,13.53,0,0,1-3.33.43,7.53,7.53,0,0,1-5.25-1.68,6.4,6.4,0,0,1-1.84-5v-7.41H131v-4.08h2.79v-4.48h4.83v4.48h5v4.08h-5v7a2.62,2.62,0,0,0,.77,2.13,4,4,0,0,0,2.53.63C142.33,130.88,143.1,130.83,144.22,130.74Z"/><path d="M146.33,110.61a2.85,2.85,0,0,1,.9-2.15,3,3,0,0,1,2.18-.86,3.13,3.13,0,0,1,2.21.86,2.85,2.85,0,0,1,.91,2.15,2.8,2.8,0,0,1-.91,2.11,3.09,3.09,0,0,1-2.21.86,3,3,0,0,1-2.18-.86A2.79,2.79,0,0,1,146.33,110.61Zm.68,24.17V117.06h4.84v17.72Z"/><path d="M153.6,131.77l2.44-2.93a6.81,6.81,0,0,0,5,2.4,3.11,3.11,0,0,0,1.62-.38,1.19,1.19,0,0,0,.63-1.09,1,1,0,0,0-.37-.84,7,7,0,0,0-1.45-.77l-1.9-.79a10.32,10.32,0,0,1-3.69-2.27,4.42,4.42,0,0,1-1.15-3.14,4.67,4.67,0,0,1,1.79-3.88,7.38,7.38,0,0,1,4.73-1.42,8.25,8.25,0,0,1,6.37,2.65l-2.43,3a5.68,5.68,0,0,0-4-1.68c-1.26,0-1.89.42-1.89,1.25a1,1,0,0,0,.39.83,6.35,6.35,0,0,0,1.47.75l1.72.72a11,11,0,0,1,3.81,2.29,4.3,4.3,0,0,1,1.17,3.11,5,5,0,0,1-2,4.16,7.84,7.84,0,0,1-4.95,1.5A8.62,8.62,0,0,1,153.6,131.77Z"/><path d="M187.09,127.55H174.66a4.31,4.31,0,0,0,1.74,2.59,5.51,5.51,0,0,0,3.24.92,8,8,0,0,0,4.94-1.79l2,3.29a10.78,10.78,0,0,1-7.09,2.65,9.36,9.36,0,0,1-6.93-2.67,8.6,8.6,0,0,1-2.77-6.6,9.17,9.17,0,0,1,9.27-9.28,8.07,8.07,0,0,1,6,2.37,8,8,0,0,1,2.35,5.87A11.76,11.76,0,0,1,187.09,127.55Zm-12.43-3.4h8.06a3.46,3.46,0,0,0-1.13-2.6,3.88,3.88,0,0,0-2.71-1,4,4,0,0,0-2.68,1A4.73,4.73,0,0,0,174.66,124.15Z"/></g></g></svg>