<?xml version="1.0" encoding="UTF-8"?><svg id="Layer_1" xmlns="http://www.w3.org/2000/svg" viewBox="0 0 4505 1077.52"><defs><style>.cls-1{fill:#fff;}</style></defs><g id="For_Extra_Large_Designs_Stacked_Logo"><path class="cls-1" d="m3827.03,164.17C3366.81,58.3,2722.18,0,2011.87,0,1036.88,0,456.36,36.24,8.15,125.1c-5.44,1.08-9,6.33-7.97,11.79,1.03,5.45,6.21,9.05,11.73,8.07C379,78.9,1018.58,41.01,1766.66,41.01c41.45,0,82.79.12,124.01.36,709.1,4.02,1309.76,62.35,1737.01,168.68,372.35,92.66,585.89,217.56,585.89,342.7,0,94.78-50.23,194.59-414.58,282.31-387.79,93.38-1077.7,164-2171.17,222.26-5.48.29-9.72,4.89-9.57,10.37.15,5.48,4.62,9.83,10.11,9.83h.02l549.61-.88c833.29-36.83,1421.65-98.59,1798.68-188.82,355.51-85.08,528.32-198.12,528.32-345.57s-240.77-277.52-677.97-378.08"/><path class="cls-1" d="m295,437.02c3.12-13.36,8.88-37.92-10.57-37.92-24.66,0-29.23,15.5-49.7,103.01-21.08,90.11-21.75,103.05,1.51,103.05,15.17,0,24.57-13.81,33.54-52.17l5.55-23.72h91.97l-4.52,19.4c-16.85,72-58.3,113.38-141.29,113.38-121.87,0-107.43-61.65-84.45-159.94,22.29-95.27,37.42-159.94,159.28-159.94,101.01,0,101.27,49.58,90.07,97.45l-5.24,22.4h-91.99l5.85-25Z"/><path class="cls-1" d="m619.85,539.19c-15.43,65.95-39.64,122.88-141.13,122.88s-99.06-56.93-83.63-122.88c15.33-65.53,39.54-122.43,141.01-122.43s99.09,56.9,83.75,122.43m-128.41,68.55c16.59,0,23.7-14.24,36.42-68.55,12.72-54.31,12.25-68.53-4.36-68.53s-23.7,14.22-36.42,68.53c-12.7,54.31-12.25,68.55,4.36,68.55"/><path class="cls-1" d="m787.78,501.69c4.12-17.66-.81-22.86-12.68-22.86s-20.71,9.5-23.84,22.86l-36.1,154.33h-91.99l54.55-233.21h89.15l-6.26,26.71h.97c19.09-22.84,44.66-32.75,75.47-32.75,32.71,0,58.77,16.36,48.78,59.05l-42.16,180.2h-92l36.11-154.33Z"/><path class="cls-1" d="m971.9,581.01c-1.38,9.92-2.62,17.25-.61,22.85,2.01,5.61,6.91,9.05,17.33,9.05,16.13,0,22.2-13.81,23.19-18.1,2.62-11.21.61-14.67-30.08-25.43-54.83-18.98-78.46-31.47-68.47-74.16,10.99-46.99,47.75-78.46,118.88-78.46,102.44,0,90.52,50.87,85.48,72.43h-77.77c1.44-6.04,2.09-12.94.15-16.82-2.32-4.31-7.04-6.47-16.99-6.47s-20.15,3.03-23.18,15.97c-2.61,11.19,8.71,15.5,60.05,33.19,23.68,8.18,52.35,19.4,40.76,68.96-13.5,57.79-66.63,78.05-123.52,78.05-66.86,0-99.65-15.97-85.84-81.06h80.61Z"/><path class="cls-1" d="m1252.47,629.3h-.96c-19.09,22.85-44.64,32.75-75.47,32.75-32.7,0-58.76-16.36-48.77-59.05l42.16-180.2h92l-36.12,154.34c-4.12,17.66.83,22.86,12.68,22.86s20.71-9.49,23.85-22.86l36.11-154.34h91.98l-54.55,233.24h-89.15l6.25-26.73Z"/><path class="cls-1" d="m1666.82,501.69c4.14-17.66-.83-22.86-12.68-22.86s-20.71,9.5-23.83,22.86l-36.11,154.33h-91.99l36.11-154.33c4.14-17.66-.83-22.86-12.68-22.86s-20.71,9.5-23.84,22.86l-36.11,154.33h-91.99l54.55-233.21h89.15l-6.26,26.71h.95c19.1-22.84,44.64-32.75,75.48-32.75,24.66,0,45.68,9.47,53.51,32.75,18.62-22.84,44.17-32.75,75.01-32.75,32.71,0,58.77,16.36,48.77,59.05l-42.16,180.2h-91.99l36.1-154.33Z"/><path class="cls-1" d="m1862.7,583.61c-2.94,12.51-5.92,29.31,13.05,29.31s23.45-15.09,28.99-38.81h83.45c-7.45,31.9-22.08,53.9-43.32,67.71-21.26,13.79-48.84,20.26-80.14,20.26-101.49,0-99.07-56.91-83.66-122.88,15.34-65.53,39.57-122.43,141.04-122.43s91.83,59.5,74.8,132.36l-.92,3.87h-126.14l-7.14,30.61Zm60.5-88.38c5.35-22.85,1.17-29.31-13.54-29.31-13.26,0-20.96,6.45-26.31,29.31l-3.21,13.81h39.82l3.24-13.81Z"/><path class="cls-1" d="m2056.31,422.8h89.15l-8.07,34.5h.95c14.25-22.44,38.88-40.54,64.02-40.54,9.97,0,12.6.86,15.35,1.3l-17.85,76.3c-3.22-.43-6.92-.86-11.08-1.29-4.17-.42-7.96-.42-17.44-.42-31.77,0-42.89,15.09-49.35,42.67l-28.24,120.7h-91.99l54.55-233.22Z"/><path class="cls-1" d="m2284.61,581.01c-1.37,9.92-2.61,17.25-.6,22.85,2.01,5.61,6.91,9.05,17.33,9.05,16.12,0,22.19-13.79,23.19-18.1,2.63-11.21.58-14.67-30.08-25.43-54.84-18.98-78.47-31.47-68.47-74.16,10.99-46.99,47.74-78.46,118.87-78.46,102.44,0,90.53,50.87,85.51,72.43h-77.79c1.41-6.04,2.09-12.94.15-16.82-2.31-4.31-7.04-6.47-16.99-6.47s-20.15,3.03-23.17,15.97c-2.62,11.19,8.71,15.5,60.05,33.19,23.68,8.18,52.36,19.4,40.77,68.96-13.5,57.79-66.63,78.05-123.52,78.05-66.86,0-99.65-15.97-85.84-81.06h80.61Z"/><polygon class="cls-1" points="2582.93 348.21 2786.83 348.21 2770.49 418.07 2661.43 418.07 2650.34 465.47 2752.3 465.47 2736.55 532.72 2634.61 532.72 2622.12 586.19 2735.44 586.19 2719.09 656.02 2510.91 656.02 2582.93 348.21"/><path class="cls-1" d="m2919.57,501.69c4.14-17.66-.82-22.86-12.66-22.86s-20.73,9.5-23.85,22.86l-36.11,154.33h-91.99l54.55-233.21h89.15l-6.24,26.71h.94c19.09-22.84,44.66-32.75,75.48-32.75,32.73,0,58.77,16.36,48.77,59.05l-42.15,180.2h-91.99l36.11-154.33Z"/><path class="cls-1" d="m3114.95,583.61c-2.94,12.51-5.91,29.31,13.05,29.31s23.44-15.09,28.99-38.81h83.47c-7.47,31.9-22.1,53.9-43.34,67.71-21.26,13.79-48.84,20.26-80.14,20.26-101.49,0-99.07-56.91-83.64-122.88,15.34-65.53,39.54-122.43,141.01-122.43s91.83,59.5,74.8,132.36l-.92,3.87h-126.13l-7.15,30.61Zm60.5-88.38c5.34-22.85,1.16-29.31-13.53-29.31-13.28,0-20.98,6.45-26.3,29.31l-3.24,13.81h39.83l3.24-13.81Z"/><path class="cls-1" d="m3308.27,422.8h89.15l-8.07,34.5h.96c14.24-22.44,38.86-40.54,64-40.54,9.97,0,12.6.86,15.35,1.3l-17.85,76.3c-3.22-.43-6.92-.86-11.07-1.29-4.18-.42-7.97-.42-17.45-.42-31.77,0-42.89,15.09-49.34,42.67l-28.24,120.7h-91.99l54.55-233.22Z"/><path class="cls-1" d="m3620.85,422.8h87.72l-52.31,223.75c-15.84,67.68-66.31,88.79-133.64,88.79-96.26,0-92.68-39.65-88.6-67.23h83.47c-1.43,6.02-.53,10.33,1.24,12.93,2.88,3.87,7.32,5.17,13.96,5.17,15.65,0,23.59-5.61,27.33-21.56l10.79-46.13h-.96c-16.72,22.86-40.14,29.74-65.27,29.74-60.7,0-59.2-59.05-46.5-113.38,12.31-52.59,32.85-118.12,107.29-118.12,28.94,0,43.29,11.64,47.79,34.91h.96l6.75-28.88Zm-36.81,56.04c-18.02,0-24.8,16.82-34.99,60.36-7.54,32.32-8.75,49.57,8.8,49.57,18.5,0,25.38-17.25,32.92-49.57,10.2-43.55,11.29-60.36-6.73-60.36"/><path class="cls-1" d="m3734.85,422.8h94.85l-9.84,141.4h.94l53.94-141.4h92.01l-119.98,231.07c-29.12,55.61-45.75,78.03-114.98,78.03-19.92,0-31.84-1.73-42.73-3.88l12.7-54.33c7.87.87,15.83,1.3,23.9,1.3,7.59,0,13.77-2.15,18.12-6.47,4.21-3.88,6.64-8.18,7.66-12.51l-16.57-233.22Z"/></g></svg>