<svg id="_300x300_px" data-name="300x300 px" xmlns="http://www.w3.org/2000/svg" viewBox="0 0 300 300"><defs><style>.cls-1{fill:#24a0d8;}.cls-2{fill:#fff;}</style></defs><path class="cls-1" d="M227.21,125.41c0,40.45-62.54,121.48-76.33,138.5a3.35,3.35,0,0,1-5.21,0c-13.78-17-76.32-98.05-76.32-138.5,0-45.35,33.58-80.84,78.93-80.84S227.21,80.06,227.21,125.41Z"/><path class="cls-2" d="M166,94a7.53,7.53,0,1,0,7.55,7.53A7.57,7.57,0,0,0,166,94Zm0,10.89a3.37,3.37,0,1,1,3.37-3.36A3.34,3.34,0,0,1,166,104.85Z"/><path class="cls-2" d="M150.75,110.4A28,28,0,0,0,145,111l14.15-21.22-12.5-4.37-17.87,29.75c-4.38,7.21-6.35,12.35-6.35,19.89,0,10.28,8.32,22.87,25.43,22.87,16,0,25.43-10.84,25.43-24.4C173.33,121,164.34,110.4,150.75,110.4Zm-2.85,36.74a13.34,13.34,0,1,1,13.37-13.34A13.41,13.41,0,0,1,147.9,147.14Z"/><path class="cls-2" d="M148.28,58.28a65,65,0,1,0,65.18,65A65.11,65.11,0,0,0,148.28,58.28Zm0,118.3a53.28,53.28,0,1,1,53.41-53.28A53.34,53.34,0,0,1,148.28,176.58Z"/></svg>