<svg xmlns="http://www.w3.org/2000/svg" viewBox="0 0 212.34 211.8"><defs><style>.cls-1{fill:#fff;}</style></defs><g id="Layer_2" data-name="Layer 2"><g id="_300x300_px" data-name="300x300 px"><path class="cls-1" d="M135,58.11a12.26,12.26,0,1,0,12.3,12.26A12.32,12.32,0,0,0,135,58.11Zm0,17.73a5.48,5.48,0,1,1,5.49-5.47A5.43,5.43,0,0,1,135,75.84Z"/><path class="cls-1" d="M110.2,84.89a45.39,45.39,0,0,0-9.3.89l23-34.56L103.59,44.1,74.48,92.55c-7.14,11.76-10.35,20.12-10.35,32.4,0,16.74,13.56,37.25,41.42,37.25,26.07,0,41.43-17.65,41.43-39.74C147,102.17,132.33,84.89,110.2,84.89Zm-4.65,59.84A21.73,21.73,0,1,1,127.33,123,21.83,21.83,0,0,1,105.55,144.73Z"/><path class="cls-1" d="M106.17,0C47.54,0,0,47.42,0,105.9S47.54,211.8,106.17,211.8s106.17-47.41,106.17-105.9S164.8,0,106.17,0Zm0,192.67a86.77,86.77,0,1,1,87-86.77A86.88,86.88,0,0,1,106.17,192.67Z"/></g></g></svg>