<svg width="34" height="26" viewBox="0 0 34 26" fill="none" xmlns="http://www.w3.org/2000/svg">
<rect x="20" width="2" height="2" fill="#D9D9D9"/>
<rect x="20" y="4" width="2" height="2" fill="#D9D9D9"/>
<rect x="20" y="8" width="2" height="2" fill="#D9D9D9"/>
<rect x="20" y="12" width="2" height="2" fill="#D9D9D9"/>
<rect x="20" y="16" width="2" height="2" fill="#D9D9D9"/>
<rect x="16" y="8" width="2" height="2" fill="#D9D9D9"/>
<rect x="16" y="12" width="2" height="2" fill="#D9D9D9"/>
<rect x="16" y="16" width="2" height="2" fill="#D9D9D9"/>
<rect x="20" y="20" width="2" height="2" fill="#D9D9D9"/>
<rect x="24" y="4" width="2" height="2" fill="#D9D9D9"/>
<rect x="24" y="8" width="2" height="2" fill="#D9D9D9"/>
<rect x="24" y="12" width="2" height="2" fill="#D9D9D9"/>
<rect x="24" y="16" width="2" height="2" fill="#D9D9D9"/>
<rect x="24" y="8" width="2" height="2" fill="#D9D9D9"/>
<rect x="24" y="16" width="2" height="2" fill="#D9D9D9"/>
<rect x="28" y="12" width="2" height="2" fill="#D9D9D9"/>
<rect x="32" y="12" width="2" height="2" fill="#D9D9D9"/>
<rect x="28" y="8" width="2" height="2" fill="#D9D9D9"/>
<rect x="28" y="16" width="2" height="2" fill="#D9D9D9"/>
<rect x="4" y="8" width="2" height="2" fill="#D9D9D9"/>
<rect x="4" y="12" width="2" height="2" fill="#D9D9D9"/>
<rect x="4" y="16" width="2" height="2" fill="#D9D9D9"/>
<rect y="8" width="2" height="2" fill="#D9D9D9"/>
<rect y="12" width="2" height="2" fill="#D9D9D9"/>
<rect x="8" y="12" width="2" height="2" fill="#D9D9D9"/>
<rect x="8" y="16" width="2" height="2" fill="#D9D9D9"/>
<rect x="8" y="8" width="2" height="2" fill="#D9D9D9"/>
<rect x="12" y="8" width="2" height="2" fill="#D9D9D9"/>
<rect x="12" y="16" width="2" height="2" fill="#D9D9D9"/>
<rect x="12" y="12" width="2" height="2" fill="#D9D9D9"/>
<rect x="24" y="20" width="2" height="2" fill="#D9D9D9"/>
<rect x="20" y="24" width="2" height="2" fill="#D9D9D9"/>
</svg>
